#tb 0: 1/15
0,          0,          0,        1,    69120, 0x68beb30f
0,          1,          1,        1,    69120, 0x3976f5cf
0,          2,          2,        1,    69120, 0xf815bc3c
0,          3,          3,        1,    69120, 0xa7cc0ae6
0,          4,          4,        1,    69120, 0xd85ac282
0,          5,          5,        1,    69120, 0xf7fd7edb
0,          6,          6,        1,    69120, 0x433bb6f6
0,          7,          7,        1,    69120, 0xdbac8bee
0,          8,          8,        1,    69120, 0x88e2a799
0,          9,          9,        1,    69120, 0x49617b26
0,         10,         10,        1,    69120, 0xeb44ca01
0,         11,         11,        1,    69120, 0x6fea37e8
0,         12,         12,        1,    69120, 0xf55d74c7
0,         13,         13,        1,    69120, 0xb5082ca7
0,         14,         14,        1,    69120, 0x5876d758
